<svg  xmlns="http://www.w3.org/2000/svg">
  <defs>
    
    <symbol id="envelope" viewBox="0 0 43 32">
      <path d="M38.667 0H4C1.794 0 0 1.794 0 4v24c0 2.206 1.794 4 4 4h34.667c2.206 0 4-1.794 4-4V4c0-2.206-1.794-4-4-4zm0 2.667c.181 0 .353.038.511.103L21.334 18.236 3.49 2.77a1.32 1.32 0 0 1 .511-.103h34.667zm0 26.666H4A1.334 1.334 0 0 1 2.667 28V5.587L20.46 21.008a1.335 1.335 0 0 0 1.748 0L40.001 5.587V28c0 .736-.598 1.333-1.333 1.333z"/>
    </symbol>
    <symbol id="facebook" viewBox="0 0 32 32">
      <path d="M21.329 5.313h2.921V.225C23.746.156 22.013 0 19.994 0c-4.212 0-7.097 2.649-7.097 7.519V12H8.249v5.688h4.648V32h5.699V17.689h4.46l.708-5.688h-5.169V8.082c.001-1.644.444-2.769 2.735-2.769z"/>
    </symbol>
    <symbol id="instagram" viewBox="0 0 32 32">
      <path d="M31.969 9.408c-.075-1.7-.35-2.869-.744-3.882a7.806 7.806 0 0 0-1.851-2.838A7.867 7.867 0 0 0 26.542.844C25.523.45 24.36.175 22.66.1 20.947.019 20.403 0 16.059 0s-4.888.019-6.595.094c-1.7.075-2.869.35-3.882.744a7.803 7.803 0 0 0-2.838 1.85A7.867 7.867 0 0 0 .9 5.52C.506 6.539.231 7.702.156 9.402c-.081 1.713-.1 2.257-.1 6.601s.019 4.888.094 6.595c.075 1.7.35 2.869.744 3.882a7.895 7.895 0 0 0 1.85 2.838 7.867 7.867 0 0 0 2.832 1.844c1.019.394 2.182.669 3.882.744 1.706.075 2.25.094 6.595.094s4.888-.019 6.595-.094c1.7-.075 2.869-.35 3.882-.744a8.184 8.184 0 0 0 4.682-4.682c.394-1.019.669-2.182.744-3.882.075-1.707.094-2.251.094-6.595s-.006-4.888-.081-6.595zm-2.882 13.065c-.069 1.563-.331 2.407-.55 2.969a5.31 5.31 0 0 1-3.038 3.038c-.563.219-1.413.481-2.969.55-1.688.075-2.194.094-6.464.094s-4.782-.019-6.464-.094c-1.563-.069-2.407-.331-2.969-.55a4.926 4.926 0 0 1-1.838-1.194 4.974 4.974 0 0 1-1.194-1.838c-.219-.563-.481-1.413-.55-2.969-.075-1.688-.094-2.194-.094-6.464s.019-4.782.094-6.464c.069-1.563.331-2.407.55-2.969a4.868 4.868 0 0 1 1.2-1.838A4.974 4.974 0 0 1 6.639 3.55c.563-.219 1.413-.481 2.969-.55 1.688-.075 2.194-.094 6.464-.094 4.276 0 4.782.019 6.464.094 1.563.069 2.407.331 2.969.55a4.914 4.914 0 0 1 1.838 1.194 4.974 4.974 0 0 1 1.194 1.838c.219.563.481 1.413.55 2.969.075 1.688.094 2.194.094 6.464s-.019 4.77-.094 6.458z"/>
      <path d="M16.059 7.783c-4.538 0-8.22 3.682-8.22 8.22s3.682 8.22 8.22 8.22c4.539 0 8.22-3.682 8.22-8.22s-3.682-8.22-8.22-8.22zm0 13.552a5.333 5.333 0 0 1 0-10.664 5.333 5.333 0 0 1 0 10.664zM26.524 7.458a1.919 1.919 0 1 1-3.838 0 1.919 1.919 0 0 1 3.838 0z"/>
    </symbol>
    <symbol id="smartphone" viewBox="0 0 20 32">
      <path d="M17 0H3C1.346 0 0 1.346 0 3v26c0 1.654 1.346 3 3 3h14c1.654 0 3-1.346 3-3V3c0-1.654-1.346-3-3-3zM3 2h14a1 1 0 0 1 1 1v21H2V3a1 1 0 0 1 1-1zm14 28H3a1 1 0 0 1-1-1v-3h16v3a1 1 0 0 1-1 1z"/>
      <path d="M4.707 27.478c.391.365.391.956 0 1.321s-1.024.365-1.414 0c-.391-.365-.391-.956 0-1.321s1.024-.365 1.414 0z"/>
    </symbol>
    <symbol id="twitter" viewBox="0 0 32 32">
      <path d="M32 6.078c-1.19.522-2.458.868-3.78 1.036a6.523 6.523 0 0 0 2.886-3.626 13.11 13.11 0 0 1-4.16 1.588A6.574 6.574 0 0 0 22.154 3c-3.632 0-6.556 2.948-6.556 6.562 0 .52.044 1.02.152 1.496-5.454-.266-10.28-2.88-13.522-6.862a6.605 6.605 0 0 0-.898 3.316 6.57 6.57 0 0 0 2.914 5.452 6.479 6.479 0 0 1-2.964-.808v.072c0 3.188 2.274 5.836 5.256 6.446a6.548 6.548 0 0 1-1.72.216 5.8 5.8 0 0 1-1.242-.112c.85 2.598 3.262 4.508 6.13 4.57a13.182 13.182 0 0 1-8.134 2.798c-.538 0-1.054-.024-1.57-.09A18.469 18.469 0 0 0 10.064 29c12.072 0 18.672-10 18.672-18.668 0-.29-.01-.57-.024-.848A13.087 13.087 0 0 0 32 6.078z"/>
    </symbol>
    <symbol id="icon-youtube" viewBox="0 0 32 32">
<path d="M31.681 9.6c0 0-0.313-2.206-1.275-3.175-1.219-1.275-2.581-1.281-3.206-1.356-4.475-0.325-11.194-0.325-11.194-0.325h-0.012c0 0-6.719 0-11.194 0.325-0.625 0.075-1.987 0.081-3.206 1.356-0.963 0.969-1.269 3.175-1.269 3.175s-0.319 2.588-0.319 5.181v2.425c0 2.587 0.319 5.181 0.319 5.181s0.313 2.206 1.269 3.175c1.219 1.275 2.819 1.231 3.531 1.369 2.563 0.244 10.881 0.319 10.881 0.319s6.725-0.012 11.2-0.331c0.625-0.075 1.988-0.081 3.206-1.356 0.962-0.969 1.275-3.175 1.275-3.175s0.319-2.587 0.319-5.181v-2.425c-0.006-2.588-0.325-5.181-0.325-5.181zM12.694 20.15v-8.994l8.644 4.513-8.644 4.481z"></path>
</symbol>
    <symbol id="icon-call" viewBox="0 0 32 32">
      <path d="m27.419 20.852-4.201-.48a3.293 3.293 0 0 0-2.713.943l-3.044 3.044A24.888 24.888 0 0 1 6.56 13.458l3.06-3.06a3.293 3.293 0 0 0 .943-2.713l-.48-4.168A3.31 3.31 0 0 0 6.791.589H3.929C2.06.589.505 2.144.621 4.013c.877 14.126 12.174 25.407 26.284 26.284 1.869.116 3.424-1.439 3.424-3.308v-2.862c.016-1.671-1.241-3.077-2.911-3.275z"/>
    </symbol>
    <symbol id="icon-head" viewBox="0 0 32 32">
      <path d="M16 16c4.42 0 8-3.58 8-8s-3.58-8-8-8-8 3.58-8 8 3.58 8 8 8zm0 4c-5.34 0-16 2.68-16 8v2c0 1.1.9 2 2 2h28c1.1 0 2-.9 2-2v-2c0-5.32-10.66-8-16-8z"/>
    </symbol>
    <symbol id="icon-send" viewBox="0 0 32 32">
      <path d="M32 0 0 18l10.227 3.788L26 7 14.002 23.186l.01.004-.012-.004V32l5.735-6.691L27 28l5-28z"/>
    </symbol>
    <symbol id="icon-subscribe" viewBox="0 0 32 32">
      <path stroke-width=".492" d="m4.817 15.389-.169-.162-2.544 2.41 8.962 8.55L29.895 8.225l-2.527-2.411L11.066 21.35l-6.249-5.962z"/>
    </symbol>
    <symbol id="icon-close" viewBox="0 0 32 32">
<path d="M32 3.223l-3.223-3.223-12.777 12.777-12.777-12.777-3.223 3.223 12.777 12.777-12.777 12.777 3.223 3.223 12.777-12.777 12.777 12.777 3.223-3.223-12.777-12.777 12.777-12.777z"></path>
</symbol>
<symbol id="icon-close_40px" viewBox="0 0 32 32">
<path d="M23.733 10.304l-1.504-1.504-5.963 5.963-5.963-5.963-1.504 1.504 5.963 5.963-5.963 5.963 1.504 1.504 5.963-5.963 5.963 5.963 1.504-1.504-5.963-5.963 5.963-5.963z"></path>
</symbol>
<symbol id="icon-menu_40px" viewBox="0 0 32 32">
<path d="M6.4 11.733v-2.133h19.2v2.133h-19.2zM6.4 17.067h19.2v-2.133h-19.2v2.133zM6.4 22.4h19.2v-2.133h-19.2v2.133z"></path>
</symbol>
<symbol id="icon-shower" viewBox="0 0 32 32">
<path d="M17.494 27.205c0 0.97 0.785 1.755 1.755 1.755s1.755-0.785 1.755-1.755c0-0.635-0.649-1.379-1.165-2.128-0.282-0.41-0.886-0.41-1.169-0-0.516 0.747-1.176 1.495-1.176 2.128z"></path>
<path d="M22.337 23.112c0 0.97 0.785 1.755 1.755 1.755s1.755-0.785 1.755-1.755c0-0.634-0.649-1.379-1.165-2.128-0.282-0.41-0.886-0.41-1.169-0-0.516 0.747-1.176 1.495-1.176 2.128z"></path>
<path d="M12.652 23.112c0 0.97 0.785 1.755 1.755 1.755s1.755-0.785 1.755-1.755c0-0.634-0.649-1.379-1.165-2.128-0.282-0.41-0.886-0.41-1.169-0-0.516 0.747-1.176 1.495-1.176 2.128z"></path>
<path d="M17.412 7.511c-3.646 0.66-6.405 3.234-6.581 6.36-0.004 0.082 0.025 0.163 0.082 0.223s0.136 0.094 0.219 0.094h16.237c0.082 0 0.162-0.034 0.217-0.094 0.057-0.060 0.087-0.141 0.083-0.223-0.181-3.214-3.091-5.847-6.89-6.412-0.662-4.218-4.31-7.459-8.712-7.459-4.869 0-8.83 3.961-8.83 8.83v21.525c0 0.909 0.737 1.645 1.646 1.645s1.646-0.736 1.646-1.645v-21.525c0-3.054 2.484-5.539 5.539-5.539 2.579 0 4.733 1.78 5.347 4.22z"></path>
<path d="M27.667 15.746h-16.836c-0.606 0-1.097 0.491-1.097 1.097s0.491 1.097 1.097 1.097h16.836c0.606 0 1.097-0.491 1.097-1.097s-0.491-1.097-1.097-1.097z"></path>
</symbol>
<symbol id="icon-aromatherapy" viewBox="0 0 32 32">
<path d="M20.885 11.998h-0.941c0.059-0.165 0.097-0.341 0.097-0.527 0-0.864-0.7-1.564-1.564-1.564h-0.895l2.28-8.182c0.116-0.416-0.128-0.847-0.544-0.963-0.414-0.115-0.847 0.127-0.963 0.544l-1.573 5.645v-6.168c0-0.432-0.35-0.782-0.782-0.782s-0.782 0.35-0.782 0.782v7.919l-1.686-6.56c-0.108-0.418-0.533-0.671-0.952-0.563s-0.671 0.534-0.563 0.952l1.896 7.377h-0.389c-0.864 0-1.564 0.7-1.564 1.564 0 0.186 0.038 0.362 0.097 0.527h-0.941c-1.378 0-2.499 1.121-2.499 2.499v15.003c0 1.378 1.121 2.499 2.499 2.499h9.77c1.378 0 2.499-1.121 2.499-2.499v-15.003c0-1.378-1.121-2.499-2.499-2.499zM14.088 22.448l1.13-4.055v4.055h-1.13zM16.782 21.074l0.353 1.373h-0.353v-1.373zM21.298 29.501c0 0.228-0.185 0.413-0.413 0.413h-9.77c-0.228 0-0.413-0.185-0.413-0.413v-15.003c0-0.228 0.185-0.413 0.413-0.413h3.679l-2.331 8.364h-0.557v5.836c0 0.168 0.135 0.304 0.303 0.304h7.581c0.168 0 0.303-0.136 0.303-0.304v-5.836h-1.343l-1.968-7.659v-0.705h4.103c0.228 0 0.413 0.185 0.413 0.413v15.003z"></path>
</symbol>
<symbol id="icon-hairbrush" viewBox="0 0 32 32">
<path d="M7.227 5.243c2.568 5.719 5.277 7.906 11.247 10.568 0.040-0.128 0.079-0.255 0.109-0.392l2.624-0.585c0.673-0.15 1.098-0.818 0.947-1.491s-0.815-1.101-1.491-0.947l-2.023 0.452c-0.055-0.385-0.133-0.777-0.241-1.175l2.303-1.409c0.589-0.36 0.773-1.129 0.414-1.717-0.361-0.589-1.131-0.773-1.717-0.414l-1.945 1.189c-0.314-0.583-0.69-1.153-1.127-1.699l1.958-1.958c0.487-0.488 0.487-1.279 0-1.766-0.489-0.488-1.278-0.488-1.767 0l-1.957 1.958c-0.546-0.437-1.117-0.813-1.701-1.128l1.19-1.944c0.359-0.588 0.174-1.357-0.414-1.717-0.587-0.359-1.356-0.175-1.717 0.414l-1.409 2.303c-0.396-0.107-0.788-0.185-1.172-0.24l0.452-2.023c0.151-0.673-0.274-1.341-0.946-1.491-0.679-0.153-1.341 0.273-1.492 0.947l-0.586 2.624c-0.246 0.055-0.473 0.13-0.691 0.214 0.48 0.366 0.888 0.838 1.152 1.427z"></path>
<path d="M30.162 29.056c-0.132-0.32-3.32-7.88-11.285-11.303-6.819-2.931-10.149-5.225-13.124-11.847-0.482-1.075-1.747-1.554-2.818-1.071-1.074 0.482-1.554 1.744-1.071 2.818 3.516 7.829 7.744 10.758 15.328 14.018 6.33 2.72 9.004 8.953 9.027 9.010 0.339 0.823 1.135 1.32 1.972 1.32 0.271 0 0.545-0.051 0.811-0.161 1.089-0.448 1.607-1.694 1.16-2.783z"></path>
</symbol>
<symbol id="icon-slippers" viewBox="0 0 32 32">
<path d="M7.143 8.517c2.465-0.379 4.961 3.435 6.659 6.795 0.533-1.342 0.742-2.885 0.493-4.487-0.66-4.249-4.166-7.233-7.829-6.664s-6.098 4.476-5.437 8.725c0.249 1.603 0.917 3.010 1.832 4.128 0.6-3.719 1.823-8.115 4.282-8.497z"></path>
<path d="M14.169 21.582c-0.518-0.756-0.834-1.607-0.969-2.484-1.98-4.646-4.662-8.644-5.731-8.472-1.066 0.165-2.413 4.787-2.889 9.816 0.138 0.876 0.094 1.782-0.169 2.656-0.3 0.997-0.387 2.105-0.21 3.242 0.556 3.571 3.502 6.079 6.581 5.601s5.126-3.763 4.57-7.334c-0.177-1.137-0.595-2.166-1.183-3.025z"></path>
<path d="M27.419 16.351c-0.476-5.029-1.823-9.651-2.889-9.816-1.077-0.196-3.754 3.827-5.731 8.472-0.134 0.877-0.451 1.728-0.969 2.484-0.588 0.859-1.007 1.889-1.184 3.025-0.556 3.571 1.491 6.855 4.57 7.334s6.026-2.030 6.581-5.601c0.177-1.137 0.090-2.245-0.21-3.242-0.263-0.874-0.306-1.781-0.169-2.656z"></path>
<path d="M25.535 0.070c-3.664-0.569-7.169 2.414-7.829 6.664-0.249 1.603-0.039 3.146 0.494 4.489 1.7-3.358 4.198-7.172 6.658-6.797 2.46 0.382 3.683 4.778 4.282 8.497 0.915-1.118 1.583-2.524 1.832-4.127 0.66-4.249-1.774-8.155-5.437-8.725z"></path>
</symbol>
<symbol id="icon-bathrobe-spa" viewBox="0 0 32 32">
<path d="M31.695 14.201l-0.841-1.223c-0.262-0.381-0.657-0.638-1.113-0.722-0.081-0.015-0.162-0.024-0.243-0.027l-5.904-8.183c-0.771-1.161-2.061-1.853-3.453-1.853h-1.711c-0.008 0-0.016 0.001-0.024 0.001-0.124 0.003-0.244 0.027-0.358 0.075-0.618 0.255-1.176 0.414-2.048 0.414-0.868 0-1.404-0.152-2.038-0.414-0.013-0.005-0.026-0.010-0.039-0.015-0.085-0.029-0.173-0.050-0.263-0.057-0.027-0.002-0.054-0.004-0.080-0.004h-1.711c-1.313 0-2.561 0.632-3.34 1.691-0.002 0.002-0.003 0.005-0.005 0.007l-6.022 8.338c-0.081 0.004-0.162 0.012-0.243 0.027-0.455 0.084-0.851 0.34-1.113 0.722l-0.842 1.223c-0.541 0.787-0.342 1.868 0.445 2.41l3.407 2.345c0.292 0.201 0.631 0.306 0.979 0.306 0.106 0 0.212-0.010 0.318-0.029 0.455-0.084 0.85-0.34 1.113-0.722l0.842-1.223c0.308-0.448 0.376-0.99 0.233-1.474l1.123-1.556 0.35 2.645-1.086 11.814c-0.026 0.28 0.068 0.557 0.257 0.765s0.457 0.326 0.738 0.326h14.265c0.283 0 0.553-0.12 0.742-0.33s0.281-0.491 0.251-0.772l-1.226-11.753 0.296-2.537 1.009 1.398c-0.143 0.484-0.075 1.027 0.233 1.475l0.841 1.223c0.262 0.381 0.657 0.638 1.113 0.722 0.106 0.020 0.212 0.029 0.318 0.029 0.347 0 0.686-0.105 0.979-0.306l3.407-2.345c0.787-0.542 0.986-1.622 0.445-2.41zM19.207 4.19h0.934c0.064 0 0.128 0.004 0.192 0.010l-2.148 7.075c-0.081 0.267-0.317 0.461-0.592 0.49h-0.304l1.919-7.575zM11.869 4.19l0.934-0 1.919 7.575h-0.304c-0.275-0.030-0.511-0.224-0.592-0.49l-2.149-7.075c0.063-0.006 0.127-0.009 0.192-0.009zM5.071 17.16l-2.971-2.045 0.542-0.787 2.971 2.045-0.541 0.787zM15.006 27.81h-4.889l0.91-9.897h2.349l-1.533 4.295c-0.185 0.52 0.085 1.091 0.605 1.276 0.111 0.040 0.224 0.058 0.336 0.058 0.41 0 0.795-0.255 0.941-0.663l1.283-3.593v8.524zM15.006 15.915h-4.008l-0.584-4.412c-0.054-0.406-0.349-0.738-0.746-0.837s-0.814 0.052-1.054 0.384l-2.393 3.317-1.87-1.287 5.586-7.735 1.977 6.51c0.323 1.064 1.285 1.829 2.394 1.905 0.023 0.002 0.045 0.002 0.068 0.002h0.63v2.153zM14.971 4.612c0.31 0.042 0.65 0.067 1.029 0.067 0.368 0 0.709-0.021 1.040-0.067l-1.034 4.083-1.035-4.084zM17.004 27.81v-9.897h0.071l1.106 3.2c0.143 0.413 0.53 0.673 0.944 0.673 0.108 0 0.218-0.018 0.326-0.055 0.521-0.18 0.798-0.749 0.618-1.27l-0.88-2.547h1.959l1.032 9.897h-5.175zM23.466 11.162c-0.241-0.334-0.663-0.486-1.061-0.382s-0.693 0.442-0.741 0.851l-0.5 4.285h-4.161v-2.153h0.63c0.023 0 0.045-0.001 0.068-0.002 1.109-0.076 2.071-0.841 2.394-1.905l1.976-6.506 5.578 7.731-1.87 1.287-2.313-3.206zM26.929 17.16l-0.541-0.787 2.971-2.045 0.542 0.787-2.971 2.045z"></path>
</symbol>
  </defs>
</svg>
